<svg width="2319" height="1467" xmlns="http://www.w3.org/2000/svg" xmlns:xlink="http://www.w3.org/1999/xlink" overflow="hidden"><defs><clipPath id="clip0"><rect x="1725" y="408" width="2319" height="1467"/></clipPath><clipPath id="clip1"><rect x="1725" y="409" width="2317" height="1464"/></clipPath><clipPath id="clip2"><rect x="2262" y="520" width="1246" height="1245"/></clipPath><clipPath id="clip3"><rect x="1725" y="409" width="2317" height="1464"/></clipPath><clipPath id="clip4"><rect x="1725" y="409" width="2317" height="1464"/></clipPath><clipPath id="clip5"><rect x="1725" y="409" width="2317" height="1464"/></clipPath><clipPath id="clip6"><rect x="1725" y="409" width="2317" height="1464"/></clipPath><clipPath id="clip7"><rect x="1725" y="409" width="2317" height="1464"/></clipPath><clipPath id="clip8"><rect x="1725" y="409" width="2317" height="1464"/></clipPath><clipPath id="clip9"><rect x="1725" y="409" width="2317" height="1464"/></clipPath><clipPath id="clip10"><rect x="1725" y="409" width="2317" height="1464"/></clipPath><clipPath id="clip11"><rect x="1725" y="409" width="2317" height="1464"/></clipPath><clipPath id="clip12"><rect x="1725" y="409" width="2317" height="1464"/></clipPath><clipPath id="clip13"><rect x="1725" y="409" width="2317" height="1464"/></clipPath><clipPath id="clip14"><rect x="1725" y="409" width="2317" height="1464"/></clipPath><clipPath id="clip15"><rect x="1725" y="409" width="2317" height="1464"/></clipPath><clipPath id="clip16"><rect x="1725" y="409" width="2317" height="1464"/></clipPath><clipPath id="clip17"><rect x="1725" y="409" width="2317" height="1464"/></clipPath><clipPath id="clip18"><rect x="1725" y="409" width="2317" height="1464"/></clipPath></defs><g clip-path="url(#clip0)" transform="translate(-1725 -408)"><g clip-path="url(#clip1)"><path d="M2883.59 1016.53 2956.6 1040.53M2956.6 1040.53 3002.6 1102.54M3002.6 1102.54 3002.6 1179.54M3002.6 1179.54 2956.6 1241.54M2956.6 1241.54 2883.59 1265.54M2883.59 1265.54 2810.59 1241.54M2810.59 1241.54 2765.59 1179.54M2765.59 1179.54 2765.59 1102.54M2765.59 1102.54 2810.59 1040.53M2810.59 1040.53 2883.59 1016.53M2883.59 892.529 3030.6 940.531M3030.6 940.531 3120.6 1064.54M3120.6 1064.54 3120.6 1217.54M3120.6 1217.54 3030.6 1342.54M3030.6 1342.54 2883.59 1389.55M2883.59 1389.55 2737.59 1342.54M2737.59 1342.54 2647.59 1217.54M2647.59 1217.54 2647.59 1064.54M2647.59 1064.54 2737.59 940.531M2737.59 940.531 2883.59 892.529M2883.59 768.525 3103.6 839.528M3103.6 839.528 3238.61 1026.53M3238.61 1026.53 3238.61 1256.54M3238.61 1256.54 3103.6 1442.55M3103.6 1442.55 2883.59 1513.55M2883.59 1513.55 2664.59 1442.55M2664.59 1442.55 2529.58 1256.54M2529.58 1256.54 2529.58 1026.53M2529.58 1026.53 2664.59 839.528M2664.59 839.528 2883.59 768.525M2883.59 644.521 3176.6 739.524M3176.6 739.524 3356.61 987.533M3356.61 987.533 3356.61 1294.54M3356.61 1294.54 3176.6 1543.55M3176.6 1543.55 2883.59 1638.55M2883.59 1638.55 2591.59 1543.55M2591.59 1543.55 2411.58 1294.54M2411.58 1294.54 2411.58 987.533M2411.58 987.533 2591.59 739.524M2591.59 739.524 2883.59 644.521M2883.59 520.5 3249.61 638.521M3249.61 638.521 3474.5 949.531M3474.5 949.531 3474.5 1333.54M3474.5 1333.54 3249.61 1643.55M3249.61 1643.55 2883.59 1762.5M2883.59 1762.5 2518.58 1643.55M2518.58 1643.55 2293.5 1333.54M2293.5 1333.54 2293.5 949.531M2293.5 949.531 2518.58 638.521M2518.58 638.521 2883.59 520.5" stroke="#1D7A8C" stroke-width="3.4375" stroke-linejoin="round" stroke-miterlimit="10" fill="none"/></g><g clip-path="url(#clip2)"><path d="M2665.09 840.028 2884.09 769 3103.1 840.028 3239 1026.03 3239 1256.04 3176.1 1543.05 2884.09 1638 2665.09 1443.05 2529.08 1256.04 2411 988.032 2665.09 840.028" stroke="#ED8074" stroke-width="10.3125" stroke-linecap="round" stroke-linejoin="round" stroke-miterlimit="10" fill="none"/></g><g clip-path="url(#clip3)"><text fill="#0B3037" font-family="Calibri,Calibri_MSFontService,sans-serif" font-weight="400" font-size="55" transform="matrix(1 0 0 1 2800.46 1160)">0</text></g><g clip-path="url(#clip4)"><text fill="#0B3037" font-family="Calibri,Calibri_MSFontService,sans-serif" font-weight="400" font-size="55" transform="matrix(1 0 0 1 2800.46 1035)">1</text></g><g clip-path="url(#clip5)"><text fill="#0B3037" font-family="Calibri,Calibri_MSFontService,sans-serif" font-weight="400" font-size="55" transform="matrix(1 0 0 1 2800.46 911)">2</text></g><g clip-path="url(#clip6)"><text fill="#0B3037" font-family="Calibri,Calibri_MSFontService,sans-serif" font-weight="400" font-size="55" transform="matrix(1 0 0 1 2800.46 787)">3</text></g><g clip-path="url(#clip7)"><text fill="#0B3037" font-family="Calibri,Calibri_MSFontService,sans-serif" font-weight="400" font-size="55" transform="matrix(1 0 0 1 2800.46 663)">4</text></g><g clip-path="url(#clip8)"><text fill="#0B3037" font-family="Calibri,Calibri_MSFontService,sans-serif" font-weight="400" font-size="55" transform="matrix(1 0 0 1 2800.46 538)">5</text></g><g clip-path="url(#clip9)"><text fill="#0B3037" font-family="Calibri,Calibri_MSFontService,sans-serif" font-weight="400" font-size="55" transform="matrix(1 0 0 1 2672.95 474)">Frangrance/Aroma</text></g><g clip-path="url(#clip10)"><text fill="#0B3037" font-family="Calibri,Calibri_MSFontService,sans-serif" font-weight="400" font-size="55" transform="matrix(1 0 0 1 3263.82 634)">Flavor</text></g><g clip-path="url(#clip11)"><text fill="#0B3037" font-family="Calibri,Calibri_MSFontService,sans-serif" font-weight="400" font-size="55" transform="matrix(1 0 0 1 3498.52 957)">Aftertaste</text></g><g clip-path="url(#clip12)"><text fill="#0B3037" font-family="Calibri,Calibri_MSFontService,sans-serif" font-weight="400" font-size="55" transform="matrix(1 0 0 1 3498.52 1356)">Acidity</text></g><g clip-path="url(#clip13)"><text fill="#0B3037" font-family="Calibri,Calibri_MSFontService,sans-serif" font-weight="400" font-size="55" transform="matrix(1 0 0 1 3263.82 1679)">Body</text></g><g clip-path="url(#clip14)"><text fill="#0B3037" font-family="Calibri,Calibri_MSFontService,sans-serif" font-weight="400" font-size="55" transform="matrix(1 0 0 1 2796.68 1839)">Balance</text></g><g clip-path="url(#clip15)"><text fill="#0B3037" font-family="Calibri,Calibri_MSFontService,sans-serif" font-weight="400" font-size="55" transform="matrix(1 0 0 1 2267.25 1679)">Sweetness</text></g><g clip-path="url(#clip16)"><text fill="#0B3037" font-family="Calibri,Calibri_MSFontService,sans-serif" font-weight="400" font-size="55" transform="matrix(1 0 0 1 2045.45 1356)">Clean Cup</text></g><g clip-path="url(#clip17)"><text fill="#0B3037" font-family="Calibri,Calibri_MSFontService,sans-serif" font-weight="400" font-size="55" transform="matrix(1 0 0 1 2027.95 957)">Uniformity</text></g><g clip-path="url(#clip18)"><text fill="#0B3037" font-family="Calibri,Calibri_MSFontService,sans-serif" font-weight="400" font-size="55" transform="matrix(1 0 0 1 2344.9 634)">Overall</text></g><rect x="1726.5" y="409.5" width="2316" height="1464" stroke="#D9D9D9" stroke-width="3.4375" stroke-linejoin="round" stroke-miterlimit="10" fill="none"/></g></svg>