<svg width="3638" height="651" xmlns="http://www.w3.org/2000/svg" xmlns:xlink="http://www.w3.org/1999/xlink" overflow="hidden"><defs><clipPath id="clip0"><rect x="187" y="332" width="3638" height="651"/></clipPath><radialGradient cx="7.51471e+06" cy="972597" r="7.57738e+06" fy="972597" gradientUnits="userSpaceOnUse" spreadMethod="pad" id="fill1" gradientTransform="matrix(-0.000360892 4.41966e-20 -4.41966e-20 -0.000360892 3369 684)"><stop offset="0" stop-color="#6F4E37"/><stop offset="0.1" stop-color="#6F4E37"/><stop offset="0.3" stop-color="#654335"/><stop offset="0.5" stop-color="#51312E"/><stop offset="0.7" stop-color="#432D2B"/><stop offset="0.9" stop-color="#322626"/><stop offset="1" stop-color="#322626"/></radialGradient><clipPath id="clip2"><rect x="192" y="427" width="465" height="153"/></clipPath><clipPath id="clip3"><rect x="3368" y="427" width="452" height="153"/></clipPath><clipPath id="clip4"><rect x="883" y="645" width="331" height="331"/></clipPath><clipPath id="clip5"><rect x="883" y="645" width="331" height="331"/></clipPath><clipPath id="clip6"><rect x="883" y="645" width="331" height="331"/></clipPath><clipPath id="clip7"><rect x="1384" y="653" width="331" height="331"/></clipPath><clipPath id="clip8"><rect x="1384" y="653" width="331" height="331"/></clipPath><clipPath id="clip9"><rect x="1384" y="653" width="331" height="331"/></clipPath><clipPath id="clip10"><rect x="1886" y="650" width="331" height="331"/></clipPath><clipPath id="clip11"><rect x="1886" y="650" width="331" height="331"/></clipPath><clipPath id="clip12"><rect x="1886" y="650" width="331" height="331"/></clipPath><clipPath id="clip13"><rect x="2389" y="639" width="331" height="331"/></clipPath><clipPath id="clip14"><rect x="2389" y="639" width="331" height="331"/></clipPath><clipPath id="clip15"><rect x="2389" y="639" width="331" height="331"/></clipPath><clipPath id="clip16"><rect x="2890" y="653" width="331" height="331"/></clipPath><clipPath id="clip17"><rect x="2890" y="653" width="331" height="331"/></clipPath><clipPath id="clip18"><rect x="2890" y="653" width="331" height="331"/></clipPath><clipPath id="clip19"><rect x="1199" y="438" width="1665" height="152"/></clipPath></defs><g clip-path="url(#clip0)" transform="translate(-187 -332)"><path d="M3369 508.499 3193.5 684 3193.5 596.248 832.5 596.248 832.5 684 657 508.499 832.5 332.997 832.5 420.746 3193.5 420.746 3193.5 332.997Z" fill="url(#fill1)" fill-rule="evenodd"/><rect x="192.5" y="428.5" width="465" height="151" stroke="#ED8074" stroke-width="11.4583" stroke-linejoin="round" stroke-miterlimit="10" fill="#FFFFFF" fill-opacity="0"/><g clip-path="url(#clip2)"><text fill="#1D7A8C" font-family="Kumbh Sans,Kumbh Sans_MSFontService,sans-serif" font-weight="400" font-size="83" transform="matrix(1 0 0 1 289.769 524)">Acidity</text></g><rect x="3369.5" y="428.5" width="450" height="151" stroke="#ED8074" stroke-width="11.4583" stroke-linejoin="round" stroke-miterlimit="10" fill="#FFFFFF" fill-opacity="0"/><g clip-path="url(#clip3)"><text fill="#1D7A8C" font-family="Kumbh Sans,Kumbh Sans_MSFontService,sans-serif" font-weight="400" font-size="83" transform="matrix(1 0 0 1 3402.52 524)">Bitterness</text></g><g clip-path="url(#clip4)"><g clip-path="url(#clip5)"><g clip-path="url(#clip6)"><path d="M1168.31 738.919C1165.67 704.544 1141.35 678.388 1114 680.481 1086.65 682.575 1066.66 712.172 1069.31 746.547 1071.96 780.922 1096.27 807.078 1123.63 804.984 1150.98 802.891 1170.97 773.294 1168.31 738.919ZM1135.8 786.594C1131.86 789.258 1127.3 790.865 1122.56 791.258 1122.11 791.296 1121.66 791.3 1121.21 791.31 1124.87 774.851 1118.32 759.654 1111.42 743.728 1105.32 729.669 1099.13 715.286 1100.25 700.089 1104.52 696.726 1109.67 694.679 1115.08 694.201L1115.24 694.201C1111.15 708.538 1117.21 722.532 1124.03 738.269 1130.37 752.885 1137.27 768.921 1135.8 786.594Z" fill="#6F4E37"/><path d="M1125.48 852.621C1101.52 827.844 1066.11 823.206 1046.39 842.281 1026.68 861.356 1030.13 896.893 1054.1 921.687 1078.07 946.482 1113.48 951.078 1133.19 932 1152.91 912.922 1149.45 877.402 1125.48 852.621ZM1123.63 922.131C1123.28 922.451 1122.94 922.701 1122.59 922.997 1114.91 908.003 1100.18 900.488 1084.72 892.634 1071.06 885.693 1057.11 878.564 1048.28 866.165 1049.42 860.853 1052.09 855.989 1055.95 852.167 1055.99 852.13 1056.03 852.102 1056.07 852.064 1062.06 865.715 1075.67 872.62 1090.95 880.389 1105.13 887.608 1120.65 895.514 1130.8 910.027 1129.5 914.616 1127.03 918.787 1123.63 922.131Z" fill="#6F4E37"/><path d="M1011.65 738.661C988.566 723.852 954.765 735.375 936.151 764.391 917.537 793.407 921.156 828.937 944.239 843.745 967.322 858.554 1001.12 847.032 1019.74 818.012 1038.36 788.993 1034.73 753.466 1011.65 738.661ZM984.798 790.784C981.048 806.232 976.892 823.138 965.132 836.341 960.355 836.154 955.711 834.716 951.664 832.171 951.286 831.927 950.949 831.639 950.585 831.377 963.414 820.456 967.346 804.39 971.44 787.536 975.06 772.63 978.796 757.409 988.868 745.942L989.016 745.942C994.394 745.861 999.678 747.349 1004.22 750.225 1004.27 750.256 1004.31 750.294 1004.35 750.321 992.45 759.3 988.848 774.119 984.798 790.784Z" fill="#6F4E37"/></g></g></g><g clip-path="url(#clip7)"><g clip-path="url(#clip8)"><g clip-path="url(#clip9)"><path d="M1670.31 745.919C1667.67 711.544 1643.35 685.388 1616 687.482 1588.65 689.575 1568.66 719.172 1571.31 753.547 1573.96 787.922 1598.27 814.078 1625.63 811.984 1652.98 809.891 1672.97 780.294 1670.31 745.919ZM1637.8 793.594C1633.86 796.259 1629.3 797.865 1624.56 798.259 1624.11 798.296 1623.66 798.3 1623.21 798.31 1626.87 781.851 1620.32 766.654 1613.42 750.728 1607.32 736.669 1601.13 722.286 1602.25 707.089 1606.52 703.726 1611.67 701.68 1617.08 701.201L1617.24 701.201C1613.15 715.539 1619.21 729.533 1626.03 745.269 1632.37 759.886 1639.27 775.922 1637.8 793.594Z" fill="#654335" fill-opacity="0.1"/><path d="M1627.48 859.621C1603.52 834.844 1568.11 830.207 1548.39 849.281 1528.68 868.356 1532.13 903.893 1556.1 928.688 1580.07 953.482 1615.48 958.078 1635.19 939 1654.91 919.922 1651.45 884.402 1627.48 859.621ZM1625.63 929.131C1625.28 929.451 1624.94 929.702 1624.59 929.997 1616.91 915.003 1602.18 907.489 1586.72 899.634 1573.06 892.694 1559.11 885.564 1550.28 873.165 1551.42 867.853 1554.09 862.989 1557.95 859.168 1557.99 859.13 1558.03 859.102 1558.07 859.065 1564.06 872.715 1577.67 879.621 1592.95 887.389 1607.13 894.608 1622.65 902.515 1632.8 917.028 1631.5 921.616 1629.03 925.787 1625.63 929.131Z" fill="#654335" fill-opacity="0.1"/><path d="M1513.65 745.661C1490.57 730.853 1456.76 742.375 1438.15 771.391 1419.54 800.407 1423.16 835.937 1446.24 850.746 1469.32 865.555 1503.12 854.032 1521.74 825.013 1540.36 795.993 1536.73 760.467 1513.65 745.661ZM1486.8 797.784C1483.05 813.232 1478.89 830.138 1467.13 843.341 1462.36 843.154 1457.71 841.716 1453.66 839.172 1453.29 838.928 1452.95 838.639 1452.58 838.378 1465.41 827.457 1469.35 811.39 1473.44 794.536 1477.06 779.631 1480.8 764.409 1490.87 752.942L1491.02 752.942C1496.39 752.861 1501.68 754.349 1506.22 757.225 1506.27 757.256 1506.31 757.294 1506.35 757.321 1494.45 766.3 1490.85 781.119 1486.8 797.784Z" fill="#654335" fill-opacity="0.1"/></g></g></g><g clip-path="url(#clip10)"><g clip-path="url(#clip11)"><g clip-path="url(#clip12)"><path d="M2172.31 742.919C2169.67 708.544 2145.35 682.388 2118 684.482 2090.65 686.575 2070.66 716.172 2073.31 750.547 2075.96 784.922 2100.27 811.078 2127.63 808.984 2154.98 806.891 2174.97 777.294 2172.31 742.919ZM2139.8 790.594C2135.86 793.259 2131.3 794.865 2126.56 795.258 2126.11 795.296 2125.66 795.3 2125.21 795.31 2128.87 778.851 2122.32 763.654 2115.42 747.728 2109.32 733.669 2103.13 719.286 2104.25 704.089 2108.52 700.726 2113.67 698.68 2119.08 698.201L2119.24 698.201C2115.15 712.539 2121.21 726.533 2128.03 742.269 2134.37 756.886 2141.27 772.922 2139.8 790.594Z" fill="#51312E" fill-opacity="0.1"/><path d="M2129.48 856.621C2105.52 831.844 2070.11 827.207 2050.39 846.281 2030.68 865.356 2034.13 900.893 2058.1 925.688 2082.07 950.482 2117.48 955.078 2137.19 936 2156.91 916.922 2153.45 881.402 2129.48 856.621ZM2127.63 926.131C2127.28 926.451 2126.94 926.702 2126.59 926.997 2118.91 912.003 2104.18 904.489 2088.72 896.634 2075.06 889.693 2061.11 882.564 2052.28 870.165 2053.42 864.853 2056.09 859.989 2059.95 856.168 2059.99 856.13 2060.03 856.102 2060.07 856.064 2066.06 869.715 2079.66 876.621 2094.95 884.389 2109.13 891.608 2124.65 899.514 2134.8 914.028 2133.5 918.616 2131.03 922.787 2127.63 926.131Z" fill="#51312E" fill-opacity="0.1"/><path d="M2015.65 742.661C1992.57 727.853 1958.76 739.375 1940.15 768.391 1921.54 797.407 1925.16 832.937 1948.24 847.746 1971.32 862.554 2005.12 851.032 2023.74 822.013 2042.36 792.993 2038.73 757.467 2015.65 742.661ZM1988.8 794.784C1985.05 810.232 1980.89 827.138 1969.13 840.341 1964.35 840.154 1959.71 838.716 1955.66 836.172 1955.29 835.928 1954.95 835.639 1954.58 835.378 1967.41 824.457 1971.35 808.39 1975.44 791.536 1979.06 776.631 1982.8 761.409 1992.87 749.942L1993.02 749.942C1998.39 749.861 2003.68 751.349 2008.22 754.225 2008.27 754.256 2008.31 754.294 2008.35 754.321 1996.45 763.3 1992.85 778.119 1988.8 794.784Z" fill="#51312E" fill-opacity="0.1"/></g></g></g><g clip-path="url(#clip13)"><g clip-path="url(#clip14)"><g clip-path="url(#clip15)"><path d="M2674.31 731.919C2671.67 697.544 2647.35 671.388 2620 673.482 2592.65 675.575 2572.66 705.172 2575.31 739.547 2577.96 773.922 2602.27 800.078 2629.63 797.984 2656.98 795.891 2676.97 766.294 2674.31 731.919ZM2641.8 779.594C2637.86 782.259 2633.3 783.865 2628.56 784.258 2628.11 784.296 2627.66 784.3 2627.21 784.31 2630.87 767.851 2624.32 752.654 2617.42 736.728 2611.32 722.669 2605.13 708.286 2606.25 693.089 2610.52 689.726 2615.67 687.68 2621.08 687.201L2621.24 687.201C2617.15 701.539 2623.21 715.533 2630.03 731.269 2636.37 745.886 2643.27 761.922 2641.8 779.594Z" fill="#432D2B" fill-opacity="0.1"/><path d="M2631.48 845.621C2607.52 820.844 2572.11 816.207 2552.39 835.281 2532.68 854.356 2536.13 889.893 2560.1 914.688 2584.07 939.482 2619.48 944.078 2639.19 925 2658.91 905.922 2655.45 870.402 2631.48 845.621ZM2629.63 915.131C2629.28 915.451 2628.94 915.702 2628.59 915.997 2620.91 901.003 2606.18 893.489 2590.72 885.634 2577.06 878.693 2563.11 871.564 2554.28 859.165 2555.42 853.853 2558.09 848.989 2561.95 845.168 2561.99 845.13 2562.03 845.102 2562.07 845.064 2568.06 858.715 2581.67 865.621 2596.95 873.389 2611.13 880.608 2626.65 888.514 2636.8 903.028 2635.5 907.616 2633.03 911.787 2629.63 915.131Z" fill="#432D2B" fill-opacity="0.1"/><path d="M2517.65 731.661C2494.57 716.853 2460.76 728.375 2442.15 757.391 2423.54 786.407 2427.16 821.937 2450.24 836.746 2473.32 851.554 2507.12 840.032 2525.74 811.013 2544.36 781.993 2540.73 746.467 2517.65 731.661ZM2490.8 783.784C2487.05 799.232 2482.89 816.138 2471.13 829.341 2466.35 829.154 2461.71 827.716 2457.66 825.172 2457.29 824.928 2456.95 824.639 2456.58 824.378 2469.41 813.457 2473.35 797.39 2477.44 780.536 2481.06 765.631 2484.8 750.409 2494.87 738.942L2495.02 738.942C2500.39 738.861 2505.68 740.349 2510.22 743.225 2510.27 743.256 2510.31 743.294 2510.35 743.321 2498.45 752.3 2494.85 767.119 2490.8 783.784Z" fill="#432D2B" fill-opacity="0.1"/></g></g></g><g clip-path="url(#clip16)"><g clip-path="url(#clip17)"><g clip-path="url(#clip18)"><path d="M3176.31 745.919C3173.67 711.544 3149.35 685.388 3122 687.482 3094.65 689.575 3074.66 719.172 3077.31 753.547 3079.96 787.922 3104.27 814.078 3131.63 811.984 3158.98 809.891 3178.97 780.294 3176.31 745.919ZM3143.8 793.594C3139.86 796.259 3135.3 797.865 3130.56 798.259 3130.11 798.296 3129.66 798.3 3129.21 798.31 3132.87 781.851 3126.32 766.654 3119.42 750.728 3113.32 736.669 3107.13 722.286 3108.25 707.089 3112.52 703.726 3117.67 701.68 3123.08 701.201L3123.24 701.201C3119.15 715.539 3125.21 729.533 3132.03 745.269 3138.37 759.886 3145.27 775.922 3143.8 793.594Z" fill="#322626" fill-opacity="0.1"/><path d="M3133.48 859.621C3109.52 834.844 3074.11 830.207 3054.39 849.281 3034.68 868.356 3038.13 903.893 3062.1 928.688 3086.07 953.482 3121.48 958.078 3141.19 939 3160.91 919.922 3157.45 884.402 3133.48 859.621ZM3131.63 929.131C3131.28 929.451 3130.94 929.702 3130.59 929.997 3122.91 915.003 3108.18 907.489 3092.72 899.634 3079.06 892.694 3065.11 885.564 3056.28 873.165 3057.42 867.853 3060.09 862.989 3063.95 859.168 3063.99 859.13 3064.03 859.102 3064.07 859.065 3070.06 872.715 3083.67 879.621 3098.95 887.389 3113.13 894.608 3128.65 902.515 3138.8 917.028 3137.5 921.616 3135.03 925.787 3131.63 929.131Z" fill="#322626" fill-opacity="0.1"/><path d="M3019.65 745.661C2996.57 730.853 2962.76 742.375 2944.15 771.391 2925.54 800.407 2929.16 835.937 2952.24 850.746 2975.32 865.555 3009.12 854.032 3027.74 825.013 3046.36 795.993 3042.73 760.467 3019.65 745.661ZM2992.8 797.784C2989.05 813.232 2984.89 830.138 2973.13 843.341 2968.35 843.154 2963.71 841.716 2959.66 839.172 2959.29 838.928 2958.95 838.639 2958.58 838.378 2971.41 827.457 2975.35 811.39 2979.44 794.536 2983.06 779.631 2986.8 764.409 2996.87 752.942L2997.02 752.942C3002.39 752.861 3007.68 754.349 3012.22 757.225 3012.27 757.256 3012.31 757.294 3012.35 757.321 3000.45 766.3 2996.85 781.119 2992.8 797.784Z" fill="#322626" fill-opacity="0.1"/></g></g></g><rect x="1200" y="438" width="1663" height="152" fill="#FFFFFF" fill-opacity="0"/><g clip-path="url(#clip19)"><text fill="#F8F8FF" font-family="Kumbh Sans,Kumbh Sans_MSFontService,sans-serif" font-weight="700" font-size="92" transform="matrix(1 0 0 1 1613.53 537)">CINNAMON ROAST</text></g></g></svg>