<svg width="2830" height="646" xmlns="http://www.w3.org/2000/svg" xmlns:xlink="http://www.w3.org/1999/xlink" overflow="hidden"><defs><clipPath id="clip0"><rect x="607" y="323" width="2830" height="646"/></clipPath><radialGradient cx="4.5526e+06" cy="972589" r="4.65533e+06" fy="972589" gradientUnits="userSpaceOnUse" spreadMethod="pad" id="fill1" gradientTransform="matrix(-0.000360892 4.41966e-20 -4.41966e-20 -0.000360892 2854 674)"><stop offset="0" stop-color="#6F4E37"/><stop offset="0.1" stop-color="#6F4E37"/><stop offset="0.3" stop-color="#654335"/><stop offset="0.5" stop-color="#51312E"/><stop offset="0.7" stop-color="#432D2B"/><stop offset="0.9" stop-color="#322626"/><stop offset="1" stop-color="#322626"/></radialGradient><clipPath id="clip2"><rect x="611" y="424" width="587" height="152"/></clipPath><clipPath id="clip3"><rect x="2862" y="424" width="569" height="152"/></clipPath><clipPath id="clip4"><rect x="1580" y="666" width="278" height="269"/></clipPath><clipPath id="clip5"><rect x="1580" y="666" width="278" height="269"/></clipPath><clipPath id="clip6"><rect x="1580" y="666" width="278" height="269"/></clipPath><clipPath id="clip7"><rect x="1911" y="669" width="278" height="270"/></clipPath><clipPath id="clip8"><rect x="1911" y="669" width="278" height="270"/></clipPath><clipPath id="clip9"><rect x="1911" y="669" width="278" height="270"/></clipPath><clipPath id="clip10"><rect x="2242" y="660" width="279" height="269"/></clipPath><clipPath id="clip11"><rect x="2242" y="660" width="279" height="269"/></clipPath><clipPath id="clip12"><rect x="2242" y="660" width="279" height="269"/></clipPath><clipPath id="clip13"><rect x="2574" y="663" width="278" height="269"/></clipPath><clipPath id="clip14"><rect x="2574" y="663" width="278" height="269"/></clipPath><clipPath id="clip15"><rect x="2574" y="663" width="278" height="269"/></clipPath><clipPath id="clip16"><rect x="1530" y="427" width="1009" height="153"/></clipPath><clipPath id="clip17"><rect x="1179" y="639" width="331" height="331"/></clipPath><clipPath id="clip18"><rect x="1179" y="639" width="331" height="331"/></clipPath><clipPath id="clip19"><rect x="1179" y="639" width="331" height="331"/></clipPath></defs><g clip-path="url(#clip0)" transform="translate(-607 -323)"><path d="M2854 498.5 2678.5 674 2678.5 586.249 1386.5 586.249 1386.5 674 1211 498.5 1386.5 323 1386.5 410.749 2678.5 410.749 2678.5 323Z" fill="url(#fill1)" fill-rule="evenodd"/><rect x="612.5" y="425.5" width="585" height="151" stroke="#ED8074" stroke-width="11.4583" stroke-linejoin="round" stroke-miterlimit="10" fill="#FFFFFF" fill-opacity="0"/><g clip-path="url(#clip2)"><text fill="#1D7A8C" font-family="Kumbh Sans,Kumbh Sans_MSFontService,sans-serif" font-weight="700" font-size="110" transform="matrix(1 0 0 1 728.149 528)">Acidity</text></g><rect x="2863.5" y="425.5" width="568" height="151" stroke="#ED8074" stroke-width="11.4583" stroke-linejoin="round" stroke-miterlimit="10" fill="#FFFFFF" fill-opacity="0"/><g clip-path="url(#clip3)"><text fill="#1D7A8C" font-family="Kumbh Sans,Kumbh Sans_MSFontService,sans-serif" font-weight="700" font-size="110" transform="matrix(1 0 0 1 2896.12 528)">Bitterness</text></g><g clip-path="url(#clip4)"><g clip-path="url(#clip5)"><g clip-path="url(#clip6)"><path d="M231.708 75.4616C229.559 47.5449 209.813 26.3031 187.6 28.0032 165.387 29.7033 149.156 53.7396 151.308 81.6563 153.461 109.573 173.203 130.815 195.417 129.115 217.63 127.415 233.869 103.378 231.708 75.4616ZM205.308 114.179C202.105 116.343 198.4 117.648 194.549 117.968 194.183 117.998 193.817 118.001 193.454 118.009 196.43 104.643 191.106 92.3009 185.504 79.3671 180.554 67.9492 175.526 56.2689 176.433 43.9269 179.897 41.1955 184.083 39.5336 188.477 39.1448L188.611 39.1448C185.286 50.7888 190.21 62.1537 195.749 74.9339 200.897 86.8041 206.497 99.8272 205.308 114.179Z" fill="#654335" fill-opacity="0.1" transform="matrix(1.03358 0 -0 1 1581 667)"/><path d="M196.927 167.802C177.464 147.679 148.707 143.913 132.696 159.404 116.686 174.895 119.489 203.755 138.955 223.892 158.422 244.028 187.176 247.761 203.186 232.267 219.196 216.773 216.393 187.927 196.927 167.802ZM195.417 224.252C195.138 224.512 194.858 224.715 194.579 224.955 188.343 212.778 176.378 206.676 163.821 200.297 152.724 194.66 141.401 188.87 134.229 178.801 135.154 174.487 137.318 170.536 140.454 167.433 140.485 167.402 140.521 167.38 140.555 167.349 145.421 178.435 156.467 184.044 168.879 190.353 180.4 196.215 192.999 202.636 201.243 214.422 200.186 218.149 198.178 221.536 195.417 224.252Z" fill="#654335" fill-opacity="0.1" transform="matrix(1.03358 0 -0 1 1581 667)"/><path d="M104.478 75.2522C85.7321 63.2257 58.2817 72.5834 43.1648 96.1478 28.0479 119.712 30.9875 148.567 49.7336 160.593 68.4796 172.62 95.9301 163.262 111.05 139.695 126.169 116.128 123.224 87.2759 104.478 75.2522ZM82.6725 117.582C79.6267 130.128 76.2516 143.857 66.7013 154.58 62.8217 154.428 59.0502 153.261 55.7636 151.194 55.4565 150.996 55.1829 150.761 54.887 150.549 65.3055 141.68 68.4992 128.632 71.824 114.944 74.7637 102.839 77.7982 90.478 85.9778 81.165L86.0978 81.165C90.4651 81.0991 94.757 82.3079 98.4482 84.6434 98.4845 84.6685 98.518 84.6992 98.5543 84.7215 88.8867 92.0134 85.961 104.048 82.6725 117.582Z" fill="#654335" fill-opacity="0.1" transform="matrix(1.03358 0 -0 1 1581 667)"/></g></g></g><g clip-path="url(#clip7)"><g clip-path="url(#clip8)"><g clip-path="url(#clip9)"><path d="M231.708 75.4616C229.559 47.5449 209.813 26.3031 187.6 28.0032 165.387 29.7033 149.156 53.7396 151.308 81.6563 153.461 109.573 173.203 130.815 195.417 129.115 217.63 127.415 233.869 103.378 231.708 75.4616ZM205.308 114.179C202.105 116.343 198.4 117.648 194.549 117.968 194.183 117.998 193.817 118.001 193.454 118.009 196.43 104.643 191.106 92.3009 185.504 79.3671 180.554 67.9492 175.526 56.2689 176.433 43.9269 179.897 41.1955 184.083 39.5336 188.477 39.1448L188.611 39.1448C185.286 50.7888 190.21 62.1537 195.749 74.9339 200.897 86.8041 206.497 99.8272 205.308 114.179Z" fill="#51312E" fill-opacity="0.1" transform="matrix(1.03358 0 -0 1 1912 670)"/><path d="M196.927 167.802C177.464 147.679 148.707 143.913 132.696 159.404 116.686 174.895 119.489 203.755 138.955 223.892 158.422 244.028 187.176 247.761 203.186 232.267 219.196 216.773 216.393 187.927 196.927 167.802ZM195.417 224.252C195.138 224.512 194.858 224.715 194.579 224.955 188.343 212.778 176.378 206.676 163.821 200.297 152.724 194.66 141.401 188.87 134.229 178.801 135.154 174.487 137.318 170.536 140.454 167.433 140.485 167.402 140.521 167.38 140.555 167.349 145.421 178.435 156.467 184.044 168.879 190.353 180.4 196.215 192.999 202.636 201.243 214.422 200.186 218.149 198.178 221.536 195.417 224.252Z" fill="#51312E" fill-opacity="0.1" transform="matrix(1.03358 0 -0 1 1912 670)"/><path d="M104.478 75.2522C85.7321 63.2257 58.2817 72.5834 43.1648 96.1478 28.0479 119.712 30.9875 148.567 49.7336 160.593 68.4796 172.62 95.9301 163.262 111.05 139.695 126.169 116.128 123.224 87.2759 104.478 75.2522ZM82.6725 117.582C79.6267 130.128 76.2516 143.857 66.7013 154.58 62.8217 154.428 59.0502 153.261 55.7636 151.194 55.4565 150.996 55.1829 150.761 54.887 150.549 65.3055 141.68 68.4992 128.632 71.824 114.944 74.7637 102.839 77.7982 90.478 85.9778 81.165L86.0978 81.165C90.4651 81.0991 94.757 82.3079 98.4482 84.6434 98.4845 84.6685 98.518 84.6992 98.5543 84.7215 88.8867 92.0134 85.961 104.048 82.6725 117.582Z" fill="#51312E" fill-opacity="0.1" transform="matrix(1.03358 0 -0 1 1912 670)"/></g></g></g><g clip-path="url(#clip10)"><g clip-path="url(#clip11)"><g clip-path="url(#clip12)"><path d="M231.708 75.4616C229.559 47.5449 209.813 26.3031 187.6 28.0032 165.387 29.7033 149.156 53.7396 151.308 81.6563 153.461 109.573 173.203 130.815 195.417 129.115 217.63 127.415 233.869 103.378 231.708 75.4616ZM205.308 114.179C202.105 116.343 198.4 117.648 194.549 117.968 194.183 117.998 193.817 118.001 193.454 118.009 196.43 104.643 191.106 92.3009 185.504 79.3671 180.554 67.9492 175.526 56.2689 176.433 43.9269 179.897 41.1955 184.083 39.5336 188.477 39.1448L188.611 39.1448C185.286 50.7888 190.21 62.1537 195.749 74.9339 200.897 86.8041 206.497 99.8272 205.308 114.179Z" fill="#432D2B" fill-opacity="0.1" transform="matrix(1.03358 0 -0 1 2243 660)"/><path d="M196.927 167.802C177.464 147.679 148.707 143.913 132.696 159.404 116.686 174.895 119.489 203.755 138.955 223.892 158.422 244.028 187.176 247.761 203.186 232.267 219.196 216.773 216.393 187.927 196.927 167.802ZM195.417 224.252C195.138 224.512 194.858 224.715 194.579 224.955 188.343 212.778 176.378 206.676 163.821 200.297 152.724 194.66 141.401 188.87 134.229 178.801 135.154 174.487 137.318 170.536 140.454 167.433 140.485 167.402 140.521 167.38 140.555 167.349 145.421 178.435 156.467 184.044 168.879 190.353 180.4 196.215 192.999 202.636 201.243 214.422 200.186 218.149 198.178 221.536 195.417 224.252Z" fill="#432D2B" fill-opacity="0.1" transform="matrix(1.03358 0 -0 1 2243 660)"/><path d="M104.478 75.2522C85.7321 63.2257 58.2817 72.5834 43.1648 96.1478 28.0479 119.712 30.9875 148.567 49.7336 160.593 68.4796 172.62 95.9301 163.262 111.05 139.695 126.169 116.128 123.224 87.2759 104.478 75.2522ZM82.6725 117.582C79.6267 130.128 76.2516 143.857 66.7013 154.58 62.8217 154.428 59.0502 153.261 55.7636 151.194 55.4565 150.996 55.1829 150.761 54.887 150.549 65.3055 141.68 68.4992 128.632 71.824 114.944 74.7637 102.839 77.7982 90.478 85.9778 81.165L86.0978 81.165C90.4651 81.0991 94.757 82.3079 98.4482 84.6434 98.4845 84.6685 98.518 84.6992 98.5543 84.7215 88.8867 92.0134 85.961 104.048 82.6725 117.582Z" fill="#432D2B" fill-opacity="0.1" transform="matrix(1.03358 0 -0 1 2243 660)"/></g></g></g><g clip-path="url(#clip13)"><g clip-path="url(#clip14)"><g clip-path="url(#clip15)"><path d="M232.573 75.7431C230.415 47.7222 210.596 26.4012 188.3 28.1077 166.004 29.8141 149.712 53.9401 151.873 81.9609 154.033 109.982 173.85 131.303 196.146 129.596 218.442 127.89 234.742 103.764 232.573 75.7431ZM206.073 114.605C202.859 116.777 199.14 118.087 195.274 118.408 194.907 118.438 194.54 118.441 194.176 118.45 197.163 105.033 191.819 92.6452 186.195 79.6632 181.227 68.2027 176.181 56.4788 177.092 44.0907 180.568 41.3492 184.769 39.6811 189.18 39.2908L189.314 39.2908C185.977 50.9783 190.92 62.3855 196.479 75.2135 201.646 87.1279 207.267 100.2 206.073 114.605Z" fill="#322626" fill-opacity="0.1" transform="matrix(1.02974 0 -0 1 2574 663)"/><path d="M197.662 168.428C178.126 148.23 149.261 144.45 133.191 159.999 117.121 175.548 119.935 204.516 139.474 224.727 159.013 244.938 187.874 248.685 203.944 233.133 220.014 217.582 217.201 188.628 197.662 168.428ZM196.146 225.088C195.865 225.349 195.585 225.554 195.305 225.795 189.045 213.572 177.036 207.446 164.432 201.044 153.293 195.386 141.928 189.575 134.73 179.468 135.659 175.138 137.83 171.172 140.978 168.058 141.009 168.027 141.046 168.004 141.079 167.974 145.963 179.101 157.051 184.73 169.509 191.063 181.073 196.947 193.719 203.392 201.994 215.222 200.933 218.962 198.918 222.363 196.146 225.088Z" fill="#322626" fill-opacity="0.1" transform="matrix(1.02974 0 -0 1 2574 663)"/><path d="M104.868 75.5329C86.0519 63.4615 58.4991 72.8541 43.3258 96.5065 28.1525 120.159 31.1031 149.121 49.9191 161.193 68.7351 173.264 96.2879 163.871 111.464 140.216 126.64 116.561 123.684 87.6015 104.868 75.5329ZM82.9808 118.021C79.9238 130.613 76.536 144.394 66.9501 155.157 63.0561 155.004 59.2705 153.832 55.9716 151.758 55.6633 151.559 55.3887 151.324 55.0917 151.111 65.5491 142.208 68.7547 129.111 72.0919 115.373 75.0425 103.223 78.0884 90.8155 86.2985 81.4677L86.419 81.4677C90.8026 81.4016 95.1105 82.6149 98.8154 84.9591 98.8518 84.9843 98.8855 85.0152 98.9219 85.0376 89.2183 92.3566 86.2817 104.436 82.9808 118.021Z" fill="#322626" fill-opacity="0.1" transform="matrix(1.02974 0 -0 1 2574 663)"/></g></g></g><rect x="1531" y="428" width="1007" height="151" fill="#FFFFFF" fill-opacity="0"/><g clip-path="url(#clip16)"><text fill="#F8F8FF" font-family="Kumbh Sans,Kumbh Sans_MSFontService,sans-serif" font-weight="700" font-size="92" transform="matrix(1 0 0 1 1616.42 526)">CINNAMON ROAST</text></g><g clip-path="url(#clip17)"><g clip-path="url(#clip18)"><g clip-path="url(#clip19)"><path d="M1464.31 731.919C1461.67 697.544 1437.35 671.388 1410 673.482 1382.65 675.575 1362.66 705.172 1365.31 739.547 1367.96 773.922 1392.27 800.078 1419.63 797.984 1446.98 795.891 1466.97 766.294 1464.31 731.919ZM1431.8 779.594C1427.86 782.259 1423.3 783.865 1418.56 784.258 1418.11 784.296 1417.66 784.3 1417.21 784.31 1420.87 767.851 1414.32 752.654 1407.42 736.728 1401.32 722.669 1395.13 708.286 1396.25 693.089 1400.52 689.726 1405.67 687.68 1411.08 687.201L1411.24 687.201C1407.15 701.539 1413.21 715.533 1420.03 731.269 1426.37 745.886 1433.27 761.922 1431.8 779.594Z" fill="#6F4E37"/><path d="M1421.48 845.621C1397.52 820.844 1362.11 816.207 1342.39 835.281 1322.68 854.356 1326.13 889.893 1350.1 914.688 1374.07 939.482 1409.48 944.078 1429.19 925 1448.91 905.922 1445.45 870.402 1421.48 845.621ZM1419.63 915.131C1419.28 915.451 1418.94 915.702 1418.59 915.997 1410.91 901.003 1396.18 893.489 1380.72 885.634 1367.06 878.693 1353.11 871.564 1344.28 859.165 1345.42 853.853 1348.09 848.989 1351.95 845.168 1351.99 845.13 1352.03 845.102 1352.07 845.064 1358.06 858.715 1371.67 865.621 1386.95 873.389 1401.13 880.608 1416.65 888.514 1426.8 903.028 1425.5 907.616 1423.03 911.787 1419.63 915.131Z" fill="#6F4E37"/><path d="M1307.65 731.661C1284.57 716.853 1250.76 728.375 1232.15 757.391 1213.54 786.407 1217.16 821.937 1240.24 836.746 1263.32 851.554 1297.12 840.032 1315.74 811.013 1334.36 781.993 1330.73 746.467 1307.65 731.661ZM1280.8 783.784C1277.05 799.232 1272.89 816.138 1261.13 829.341 1256.36 829.154 1251.71 827.716 1247.66 825.172 1247.29 824.928 1246.95 824.639 1246.58 824.378 1259.41 813.457 1263.35 797.39 1267.44 780.536 1271.06 765.631 1274.8 750.409 1284.87 738.942L1285.02 738.942C1290.39 738.861 1295.68 740.349 1300.22 743.225 1300.27 743.256 1300.31 743.294 1300.35 743.321 1288.45 752.3 1284.85 767.119 1280.8 783.784Z" fill="#6F4E37"/></g></g></g></g></svg>