<svg width="3648" height="650" xmlns="http://www.w3.org/2000/svg" xmlns:xlink="http://www.w3.org/1999/xlink" overflow="hidden"><defs><clipPath id="clip0"><rect x="177" y="1856" width="3648" height="650"/></clipPath><radialGradient cx="7.5341e+06" cy="972589" r="7.59662e+06" fy="972589" gradientUnits="userSpaceOnUse" spreadMethod="pad" id="fill1" gradientTransform="matrix(-0.000360892 4.41966e-20 -4.41966e-20 -0.000360892 3367 2207)"><stop offset="0" stop-color="#6F4E37"/><stop offset="0.1" stop-color="#6F4E37"/><stop offset="0.3" stop-color="#654335"/><stop offset="0.5" stop-color="#51312E"/><stop offset="0.7" stop-color="#432D2B"/><stop offset="0.9" stop-color="#322626"/><stop offset="1" stop-color="#322626"/></radialGradient><clipPath id="clip2"><rect x="182" y="1950" width="462" height="153"/></clipPath><clipPath id="clip3"><rect x="3364" y="1950" width="456" height="153"/></clipPath><clipPath id="clip4"><rect x="874" y="2169" width="332" height="331"/></clipPath><clipPath id="clip5"><rect x="874" y="2169" width="332" height="331"/></clipPath><clipPath id="clip6"><rect x="874" y="2169" width="332" height="331"/></clipPath><clipPath id="clip7"><rect x="1378" y="2175" width="332" height="331"/></clipPath><clipPath id="clip8"><rect x="1378" y="2175" width="332" height="331"/></clipPath><clipPath id="clip9"><rect x="1378" y="2175" width="332" height="331"/></clipPath><clipPath id="clip10"><rect x="1882" y="2172" width="332" height="331"/></clipPath><clipPath id="clip11"><rect x="1882" y="2172" width="332" height="331"/></clipPath><clipPath id="clip12"><rect x="1882" y="2172" width="332" height="331"/></clipPath><clipPath id="clip13"><rect x="2384" y="2161" width="332" height="331"/></clipPath><clipPath id="clip14"><rect x="2384" y="2161" width="332" height="331"/></clipPath><clipPath id="clip15"><rect x="2384" y="2161" width="332" height="331"/></clipPath><clipPath id="clip16"><rect x="2887" y="2175" width="332" height="331"/></clipPath><clipPath id="clip17"><rect x="2887" y="2175" width="332" height="331"/></clipPath><clipPath id="clip18"><rect x="2887" y="2175" width="332" height="331"/></clipPath><clipPath id="clip19"><rect x="1192" y="1961" width="1669" height="152"/></clipPath></defs><g clip-path="url(#clip0)" transform="translate(-177 -1856)"><path d="M3367 2031.5 3191.5 2207 3191.5 2119.25 823.498 2119.25 823.498 2207 648 2031.5 823.498 1856 823.498 1943.75 3191.5 1943.75 3191.5 1856Z" fill="url(#fill1)" fill-rule="evenodd"/><rect x="182.5" y="1951.5" width="462" height="151" stroke="#ED8074" stroke-width="11.4583" stroke-linejoin="round" stroke-miterlimit="10" fill="#FFFFFF" fill-opacity="0"/><g clip-path="url(#clip2)"><text fill="#1D7A8C" font-family="Kumbh Sans,Kumbh Sans_MSFontService,sans-serif" font-weight="400" font-size="83" transform="matrix(1 0 0 1 278.174 2047)">Acidity</text></g><rect x="3364.5" y="1951.5" width="455" height="151" stroke="#ED8074" stroke-width="11.4583" stroke-linejoin="round" stroke-miterlimit="10" fill="#FFFFFF" fill-opacity="0"/><g clip-path="url(#clip3)"><text fill="#1D7A8C" font-family="Kumbh Sans,Kumbh Sans_MSFontService,sans-serif" font-weight="400" font-size="83" transform="matrix(1 0 0 1 3400.37 2047)">Bitterness</text></g><g clip-path="url(#clip4)"><g clip-path="url(#clip5)"><g clip-path="url(#clip6)"><path d="M285.313 92.9191C282.666 58.5441 258.352 32.3881 231 34.4816 203.648 36.575 183.662 66.1719 186.313 100.547 188.963 134.922 213.273 161.078 240.625 158.984 267.977 156.891 287.973 127.294 285.313 92.9191ZM252.804 140.594C248.861 143.258 244.299 144.865 239.556 145.258 239.106 145.296 238.655 145.3 238.208 145.31 241.873 128.851 235.318 113.654 228.418 97.7281 222.324 83.6687 216.133 69.2862 217.25 54.0891 221.515 50.7258 226.669 48.6795 232.079 48.2006L232.244 48.2006C228.15 62.5384 234.214 76.5325 241.034 92.2694 247.373 106.886 254.268 122.922 252.804 140.594Z" fill="#6F4E37" fill-opacity="0.1" transform="matrix(1.00303 0 -0 1 875 2169)"/><path d="M242.485 206.621C218.518 181.844 183.109 177.207 163.395 196.281 143.681 215.356 147.132 250.893 171.102 275.688 195.071 300.482 230.477 305.078 250.192 286 269.906 266.922 266.454 231.402 242.485 206.621ZM240.625 276.131C240.281 276.451 239.938 276.702 239.594 276.997 231.914 262.003 217.181 254.488 201.719 246.634 188.055 239.693 174.113 232.564 165.282 220.165 166.421 214.853 169.085 209.989 172.947 206.168 172.985 206.13 173.03 206.102 173.071 206.064 179.063 219.715 192.665 226.621 207.948 234.389 222.135 241.608 237.648 249.514 247.799 264.027 246.498 268.616 244.025 272.787 240.625 276.131Z" fill="#6F4E37" fill-opacity="0.1" transform="matrix(1.00303 0 -0 1 875 2169)"/><path d="M128.648 92.6612C105.566 77.8525 71.7647 89.375 53.1506 118.391 34.5366 147.407 38.1563 182.937 61.2391 197.746 84.3219 212.554 118.123 201.032 136.74 172.012 155.358 142.993 151.731 107.467 128.648 92.6612ZM101.798 144.784C98.0478 160.232 93.8919 177.138 82.1322 190.341 77.3551 190.154 72.711 188.716 68.6641 186.172 68.2859 185.928 67.9491 185.639 67.5847 185.378 80.4134 174.457 84.3459 158.39 88.44 141.536 92.0597 126.631 95.7962 111.409 105.868 99.9419L106.016 99.9419C111.394 99.8607 116.678 101.349 121.223 104.225 121.268 104.256 121.309 104.294 121.354 104.321 109.45 113.3 105.847 128.119 101.798 144.784Z" fill="#6F4E37" fill-opacity="0.1" transform="matrix(1.00303 0 -0 1 875 2169)"/></g></g></g><g clip-path="url(#clip7)"><g clip-path="url(#clip8)"><g clip-path="url(#clip9)"><path d="M285.313 92.9191C282.666 58.5441 258.352 32.3881 231 34.4816 203.648 36.575 183.662 66.1719 186.313 100.547 188.963 134.922 213.273 161.078 240.625 158.984 267.977 156.891 287.973 127.294 285.313 92.9191ZM252.804 140.594C248.861 143.258 244.299 144.865 239.556 145.258 239.106 145.296 238.655 145.3 238.208 145.31 241.873 128.851 235.318 113.654 228.418 97.7281 222.324 83.6687 216.133 69.2862 217.25 54.0891 221.515 50.7258 226.669 48.6795 232.079 48.2006L232.244 48.2006C228.15 62.5384 234.214 76.5325 241.034 92.2694 247.373 106.886 254.268 122.922 252.804 140.594Z" fill="#654335" fill-opacity="0.1" transform="matrix(1.00303 0 -0 1 1378 2176)"/><path d="M242.485 206.621C218.518 181.844 183.109 177.207 163.395 196.281 143.681 215.356 147.132 250.893 171.102 275.688 195.071 300.482 230.477 305.078 250.192 286 269.906 266.922 266.454 231.402 242.485 206.621ZM240.625 276.131C240.281 276.451 239.938 276.702 239.594 276.997 231.914 262.003 217.181 254.488 201.719 246.634 188.055 239.693 174.113 232.564 165.282 220.165 166.421 214.853 169.085 209.989 172.947 206.168 172.985 206.13 173.03 206.102 173.071 206.064 179.063 219.715 192.665 226.621 207.948 234.389 222.135 241.608 237.648 249.514 247.799 264.027 246.498 268.616 244.025 272.787 240.625 276.131Z" fill="#654335" fill-opacity="0.1" transform="matrix(1.00303 0 -0 1 1378 2176)"/><path d="M128.648 92.6612C105.566 77.8525 71.7647 89.375 53.1506 118.391 34.5366 147.407 38.1563 182.937 61.2391 197.746 84.3219 212.554 118.123 201.032 136.74 172.012 155.358 142.993 151.731 107.467 128.648 92.6612ZM101.798 144.784C98.0478 160.232 93.8919 177.138 82.1322 190.341 77.3551 190.154 72.711 188.716 68.6641 186.172 68.2859 185.928 67.9491 185.639 67.5847 185.378 80.4134 174.457 84.3459 158.39 88.44 141.536 92.0597 126.631 95.7962 111.409 105.868 99.9419L106.016 99.9419C111.394 99.8607 116.678 101.349 121.223 104.225 121.268 104.256 121.309 104.294 121.354 104.321 109.45 113.3 105.847 128.119 101.798 144.784Z" fill="#654335" fill-opacity="0.1" transform="matrix(1.00303 0 -0 1 1378 2176)"/></g></g></g><g clip-path="url(#clip10)"><g clip-path="url(#clip11)"><g clip-path="url(#clip12)"><path d="M285.313 92.9191C282.666 58.5441 258.352 32.3881 231 34.4816 203.648 36.575 183.662 66.1719 186.313 100.547 188.963 134.922 213.273 161.078 240.625 158.984 267.977 156.891 287.973 127.294 285.313 92.9191ZM252.804 140.594C248.861 143.258 244.299 144.865 239.556 145.258 239.106 145.296 238.655 145.3 238.208 145.31 241.873 128.851 235.318 113.654 228.418 97.7281 222.324 83.6687 216.133 69.2862 217.25 54.0891 221.515 50.7258 226.669 48.6795 232.079 48.2006L232.244 48.2006C228.15 62.5384 234.214 76.5325 241.034 92.2694 247.373 106.886 254.268 122.922 252.804 140.594Z" fill="#51312E" transform="matrix(1.00303 0 -0 1 1882 2173)"/><path d="M242.485 206.621C218.518 181.844 183.109 177.207 163.395 196.281 143.681 215.356 147.132 250.893 171.102 275.688 195.071 300.482 230.477 305.078 250.192 286 269.906 266.922 266.454 231.402 242.485 206.621ZM240.625 276.131C240.281 276.451 239.938 276.702 239.594 276.997 231.914 262.003 217.181 254.488 201.719 246.634 188.055 239.693 174.113 232.564 165.282 220.165 166.421 214.853 169.085 209.989 172.947 206.168 172.985 206.13 173.03 206.102 173.071 206.064 179.063 219.715 192.665 226.621 207.948 234.389 222.135 241.608 237.648 249.514 247.799 264.027 246.498 268.616 244.025 272.787 240.625 276.131Z" fill="#51312E" transform="matrix(1.00303 0 -0 1 1882 2173)"/><path d="M128.648 92.6612C105.566 77.8525 71.7647 89.375 53.1506 118.391 34.5366 147.407 38.1563 182.937 61.2391 197.746 84.3219 212.554 118.123 201.032 136.74 172.012 155.358 142.993 151.731 107.467 128.648 92.6612ZM101.798 144.784C98.0478 160.232 93.8919 177.138 82.1322 190.341 77.3551 190.154 72.711 188.716 68.6641 186.172 68.2859 185.928 67.9491 185.639 67.5847 185.378 80.4134 174.457 84.3459 158.39 88.44 141.536 92.0597 126.631 95.7962 111.409 105.868 99.9419L106.016 99.9419C111.394 99.8607 116.678 101.349 121.223 104.225 121.268 104.256 121.309 104.294 121.354 104.321 109.45 113.3 105.847 128.119 101.798 144.784Z" fill="#51312E" transform="matrix(1.00303 0 -0 1 1882 2173)"/></g></g></g><g clip-path="url(#clip13)"><g clip-path="url(#clip14)"><g clip-path="url(#clip15)"><path d="M285.313 92.9191C282.666 58.5441 258.352 32.3881 231 34.4816 203.648 36.575 183.662 66.1719 186.313 100.547 188.963 134.922 213.273 161.078 240.625 158.984 267.977 156.891 287.973 127.294 285.313 92.9191ZM252.804 140.594C248.861 143.258 244.299 144.865 239.556 145.258 239.106 145.296 238.655 145.3 238.208 145.31 241.873 128.851 235.318 113.654 228.418 97.7281 222.324 83.6687 216.133 69.2862 217.25 54.0891 221.515 50.7258 226.669 48.6795 232.079 48.2006L232.244 48.2006C228.15 62.5384 234.214 76.5325 241.034 92.2694 247.373 106.886 254.268 122.922 252.804 140.594Z" fill="#432D2B" fill-opacity="0.1" transform="matrix(1.00303 0 -0 1 2385 2162)"/><path d="M242.485 206.621C218.518 181.844 183.109 177.207 163.395 196.281 143.681 215.356 147.132 250.893 171.102 275.688 195.071 300.482 230.477 305.078 250.192 286 269.906 266.922 266.454 231.402 242.485 206.621ZM240.625 276.131C240.281 276.451 239.938 276.702 239.594 276.997 231.914 262.003 217.181 254.488 201.719 246.634 188.055 239.693 174.113 232.564 165.282 220.165 166.421 214.853 169.085 209.989 172.947 206.168 172.985 206.13 173.03 206.102 173.071 206.064 179.063 219.715 192.665 226.621 207.948 234.389 222.135 241.608 237.648 249.514 247.799 264.027 246.498 268.616 244.025 272.787 240.625 276.131Z" fill="#432D2B" fill-opacity="0.1" transform="matrix(1.00303 0 -0 1 2385 2162)"/><path d="M128.648 92.6612C105.566 77.8525 71.7647 89.375 53.1506 118.391 34.5366 147.407 38.1563 182.937 61.2391 197.746 84.3219 212.554 118.123 201.032 136.74 172.012 155.358 142.993 151.731 107.467 128.648 92.6612ZM101.798 144.784C98.0478 160.232 93.8919 177.138 82.1322 190.341 77.3551 190.154 72.711 188.716 68.6641 186.172 68.2859 185.928 67.9491 185.639 67.5847 185.378 80.4134 174.457 84.3459 158.39 88.44 141.536 92.0597 126.631 95.7962 111.409 105.868 99.9419L106.016 99.9419C111.394 99.8607 116.678 101.349 121.223 104.225 121.268 104.256 121.309 104.294 121.354 104.321 109.45 113.3 105.847 128.119 101.798 144.784Z" fill="#432D2B" fill-opacity="0.1" transform="matrix(1.00303 0 -0 1 2385 2162)"/></g></g></g><g clip-path="url(#clip16)"><g clip-path="url(#clip17)"><g clip-path="url(#clip18)"><path d="M285.313 92.9191C282.666 58.5441 258.352 32.3881 231 34.4816 203.648 36.575 183.662 66.1719 186.313 100.547 188.963 134.922 213.273 161.078 240.625 158.984 267.977 156.891 287.973 127.294 285.313 92.9191ZM252.804 140.594C248.861 143.258 244.299 144.865 239.556 145.258 239.106 145.296 238.655 145.3 238.208 145.31 241.873 128.851 235.318 113.654 228.418 97.7281 222.324 83.6687 216.133 69.2862 217.25 54.0891 221.515 50.7258 226.669 48.6795 232.079 48.2006L232.244 48.2006C228.15 62.5384 234.214 76.5325 241.034 92.2694 247.373 106.886 254.268 122.922 252.804 140.594Z" fill="#322626" fill-opacity="0.1" transform="matrix(1.00303 0 -0 1 2888 2176)"/><path d="M242.485 206.621C218.518 181.844 183.109 177.207 163.395 196.281 143.681 215.356 147.132 250.893 171.102 275.688 195.071 300.482 230.477 305.078 250.192 286 269.906 266.922 266.454 231.402 242.485 206.621ZM240.625 276.131C240.281 276.451 239.938 276.702 239.594 276.997 231.914 262.003 217.181 254.488 201.719 246.634 188.055 239.693 174.113 232.564 165.282 220.165 166.421 214.853 169.085 209.989 172.947 206.168 172.985 206.13 173.03 206.102 173.071 206.064 179.063 219.715 192.665 226.621 207.948 234.389 222.135 241.608 237.648 249.514 247.799 264.027 246.498 268.616 244.025 272.787 240.625 276.131Z" fill="#322626" fill-opacity="0.1" transform="matrix(1.00303 0 -0 1 2888 2176)"/><path d="M128.648 92.6612C105.566 77.8525 71.7647 89.375 53.1506 118.391 34.5366 147.407 38.1563 182.937 61.2391 197.746 84.3219 212.554 118.123 201.032 136.74 172.012 155.358 142.993 151.731 107.467 128.648 92.6612ZM101.798 144.784C98.0478 160.232 93.8919 177.138 82.1322 190.341 77.3551 190.154 72.711 188.716 68.6641 186.172 68.2859 185.928 67.9491 185.639 67.5847 185.378 80.4134 174.457 84.3459 158.39 88.44 141.536 92.0597 126.631 95.7962 111.409 105.868 99.9419L106.016 99.9419C111.394 99.8607 116.678 101.349 121.223 104.225 121.268 104.256 121.309 104.294 121.354 104.321 109.45 113.3 105.847 128.119 101.798 144.784Z" fill="#322626" fill-opacity="0.1" transform="matrix(1.00303 0 -0 1 2888 2176)"/></g></g></g><rect x="1192" y="1961" width="1669" height="151" fill="#FFFFFF" fill-opacity="0"/><g clip-path="url(#clip19)"><text fill="#F8F8FF" font-family="Kumbh Sans,Kumbh Sans_MSFontService,sans-serif" font-weight="700" font-size="92" transform="matrix(1 0 0 1 1645.95 2060)">FULL CITY ROAST</text></g></g></svg>